<?xml version="1.0" encoding="utf-8"?>
<!-- Generator: Adobe Illustrator 16.0.0, SVG Export Plug-In . SVG Version: 6.00 Build 0)  -->
<!DOCTYPE svg PUBLIC "-//W3C//DTD SVG 1.1//EN" "http://www.w3.org/Graphics/SVG/1.1/DTD/svg11.dtd">
<svg version="1.1" id="Layer_1" xmlns="http://www.w3.org/2000/svg" xmlns:xlink="http://www.w3.org/1999/xlink" x="0px" y="0px"
	 width="784px" height="548px" viewBox="0 0 784 548" enable-background="new 0 0 784 548" xml:space="preserve">
<g>
	<g transform="translate(0.906250, 0.761982)">
		<path fill="#19171C" d="M202.9,402.5c110.67,0,200.38-89.71,200.38-200.37c0-110.67-89.71-200.38-200.38-200.38
			C92.24,1.75,2.53,91.46,2.53,202.13C2.53,312.791,92.24,402.5,202.9,402.5"/>
		<path fill="#FFFFFF" d="M126.19,162.61c6.75,2.79,14.42-0.399,17.17-7.07c2.771-6.67-0.399-14.399-7.149-17.18
			c-6.63-2.72-14.33,0.521-17.08,7.22C116.37,152.23,119.55,159.9,126.19,162.61"/>
		<path fill="#FFFFFF" d="M96.44,180.05c6.761,2.779,14.42-0.41,17.17-7.08c2.771-6.67-0.38-14.41-7.14-17.181
			c-6.63-2.729-14.33,0.53-17.09,7.211C86.62,169.66,89.82,177.32,96.44,180.05"/>
		<path fill="#FFFFFF" d="M87.74,213.11c6.76,2.78,14.43-0.399,17.17-7.09c2.77-6.65-0.4-14.39-7.15-17.17
			c-6.62-2.71-14.33,0.53-17.08,7.22C77.92,202.72,81.12,210.39,87.74,213.11"/>
		<path fill="#FFFFFF" d="M159.37,173.09c6.77,2.79,14.43-0.4,17.17-7.08c2.77-6.66-0.391-14.41-7.15-17.181
			c-6.62-2.71-14.32,0.53-17.06,7.221C149.55,162.71,152.75,170.38,159.37,173.09"/>
		<path fill="#FFFFFF" d="M279.63,162.61c-6.76,2.79-14.43-0.399-17.17-7.07c-2.771-6.67,0.39-14.399,7.14-17.18
			c6.63-2.72,14.33,0.521,17.08,7.22C289.43,152.23,286.25,159.9,279.63,162.61"/>
		<path fill="#FFFFFF" d="M309.37,180.05c-6.771,2.779-14.42-0.41-17.181-7.08c-2.77-6.67,0.391-14.41,7.15-17.181
			c6.63-2.729,14.33,0.53,17.09,7.211C319.18,169.66,315.99,177.32,309.37,180.05"/>
		<path fill="#FFFFFF" d="M318.07,213.11c-6.75,2.78-14.42-0.399-17.17-7.09c-2.77-6.65,0.391-14.39,7.141-17.17
			c6.63-2.71,14.33,0.53,17.09,7.22C327.89,202.72,324.69,210.39,318.07,213.11"/>
		<path fill="#FFFFFF" d="M246.44,173.09c-6.76,2.79-14.42-0.4-17.18-7.08c-2.76-6.66,0.4-14.41,7.15-17.181
			c6.63-2.71,14.33,0.53,17.09,7.221C256.26,162.71,253.06,170.38,246.44,173.09"/>
		<path fill="#FFFFFF" d="M209.84,139.19l0.03-0.03l16.6,8.721V123.4l-16.57,5.26l-0.06-0.06c-0.46-0.6-1-1.15-1.61-1.62l-0.04-0.04
			l6.67-21.01H202.87h-11.98l6.68,21.01l-0.05,0.04c-0.6,0.47-1.149,1.021-1.609,1.62l-0.051,0.06l-16.58-5.26v24.48l16.601-8.721
			l0.05,0.03c0.48,0.64,1.061,1.22,1.71,1.7l-9.54,28.77c-0.01,0.03-0.02,0.08-0.03,0.101l-0.01,0.04
			c-0.439,1.43-0.68,2.96-0.68,4.54c0,7.779,5.74,14.21,13.22,15.31c0.11,0.01,0.22,0.03,0.33,0.05c0.64,0.08,1.29,0.141,1.94,0.141
			c0.67,0,1.319-0.061,1.949-0.141c0.11-0.02,0.221-0.04,0.341-0.05c7.47-1.1,13.22-7.53,13.22-15.31c0-1.58-0.25-3.11-0.69-4.54
			l-0.01-0.04c-0.01-0.021-0.02-0.07-0.03-0.101l-9.54-28.77C208.76,140.41,209.34,139.83,209.84,139.19"/>
		<path fill="#FFFFFF" d="M202.88,279.95c31.52,0,61.359,2.141,87.939,5.94c7.54-31.72,16.74-49.91,26.21-62.84l-17.859-6.36
			c1.78,9.07,2.06,13.29,0.08,19.12c-2.94-2.89-5.74-8.18-7.92-16.271l-8.65,28.811c5.271-3.63,9.32-5.97,13.97-6.08
			c-8.239,17.75-18.529,22.31-25.189,21.08c-8.15-1.49-11.88-8.75-10.62-14.91c1.87-8.72,10.82-11,15.01-0.85
			c8-16.311-5.58-21.4-14.31-16.561c13.41-13.38,14.949-25.279,4.12-39.66c-15.08,11.53-15.25,22.94-8.471,39.011
			c-8.8-10.08-22.5-4.67-17.56,11.62c6.35-9.841,14.76-3.65,13.439,5.689c-1.109,8.13-11.859,14.71-25.239,13.55
			c-19.17-1.75-20.32-14.979-20.79-25.93c4.71-0.87,13.2,3.5,20.43,13.66l2.68-30.561c-7.88,8.2-15.029,9.761-22.979,10.011
			c2.649-8.25,14.79-21.771,14.79-21.771H204.3l0,0h-0.021h-20.46c0,0,12.16,13.521,14.811,21.771
			c-7.95-0.25-15.101-1.811-22.98-10.011l2.67,30.561c7.24-10.16,15.721-14.53,20.44-13.66c-0.48,10.95-1.62,24.18-20.8,25.93
			c-13.38,1.16-24.12-5.42-25.24-13.55c-1.31-9.34,7.09-15.53,13.45-5.689c4.939-16.29-8.76-21.7-17.57-11.62
			c6.79-16.07,6.61-27.48-8.47-39.011c-10.83,14.381-9.28,26.28,4.12,39.66c-8.73-4.84-22.3,0.25-14.3,16.561
			c4.18-10.15,13.13-7.87,15.01,0.85c1.26,6.16-2.49,13.42-10.62,14.91c-6.67,1.229-16.96-3.33-25.2-21.08
			c4.64,0.11,8.71,2.45,13.97,6.08l-8.649-28.811c-2.181,8.091-4.97,13.381-7.92,16.271c-1.98-5.83-1.7-10.05,0.069-19.12
			l-17.85,6.36c9.48,12.93,18.66,31.12,26.21,62.83C141.55,282.09,171.37,279.95,202.88,279.95"/>
		<path fill="#19171C" d="M67.29,513.38H48.45v-11.36H81.81v40.4H68.76v-8.62c-3.79,5.68-11.05,9.68-20.2,9.68
			c-21.47,0-33.68-16.729-33.68-37.88c0-21.149,13.79-37.88,35.25-37.88c14,0,25.36,6.73,30.2,17.04l-13.04,7.37
			c-3.16-6.311-8.42-10.84-17.261-10.84c-13.579,0-19.779,11.37-19.779,23.779v0.74c0,12.521,6.1,24.2,19.88,24.2
			C64.02,530.01,67.29,519.701,67.29,513.38"/>
		<path fill="#19171C" d="M127.36,543.48c-21.979,0-35.14-16.729-35.14-37.88c0-21.149,13.16-37.88,35.14-37.88
			c21.891,0,35.04,16.73,35.04,37.88C162.4,526.75,149.25,543.48,127.36,543.48 M127.36,481.291c-13.47,0-19.67,10.31-19.67,24.199
			v0.32c0,13.891,6.2,24.2,19.67,24.2c13.36,0,19.57-10.31,19.57-24.2C146.93,492.34,140.94,481.291,127.36,481.291"/>
	</g>
	<path fill="#19171C" d="M188.82,543.54l-20.829-73.659h16.729l14.31,54.3l14.101-54.3h16.729l-20.83,73.659H188.82z"/>
	<g transform="translate(229.040951, 466.670880)">
		<path fill="#19171C" d="M10.23,57.89c5.37,0,9.891,4.42,9.891,9.79c0,5.47-4.521,9.89-9.891,9.89c-5.359,0-9.89-4.42-9.89-9.89
			C0.34,62.31,4.87,57.89,10.23,57.89"/>
		<path fill="#19171C" d="M76.94,48.421V2.761h14.73v47.87c0,16.409-12.62,26.939-29.98,26.939c-17.37,0-29.99-10.53-29.99-26.939
			V2.761h14.73v45.66c0,10.729,6.63,15.68,15.26,15.68C70.31,64.1,76.94,59.15,76.94,48.421"/>
	</g>
	<path fill="#19171C" d="M335.08,469.881h14.93v31.89l26.31-31.89h18.311l-25.57,29.26l27.25,44.399H378.95L359.49,510.5
		l-9.479,10.631v22.409h-14.93V469.881z"/>
	<path fill="#19171C" d="M466,543.54l-21.681-73.659H454l17.989,65.239l18.101-65.239h9.68l-21.57,73.659H466z"/>
	<path fill="#19171C" d="M515.01,469.881h44.09v7.79h-35.04v24.199h32.2v7.79h-32.2v26.09h37.04v7.79h-46.09V469.881z"/>
	<path fill="#19171C" d="M576.06,469.881h25.15c13.68,0,24.52,6.739,24.52,21.989c0,9.37-5.16,16.74-14.63,20.42l15.57,31.25h-10.41
		l-14-29.46h-17.15v29.46h-9.05V469.881z M601.74,506.19c8.41,0,14.521-5.16,14.521-14.1c0-9.16-6.11-14.42-14.521-14.42h-16.63
		v28.52H601.74z"/>
	<path fill="#19171C" d="M643.539,469.881h9.051v73.659h-9.051V469.881z"/>
	<path fill="#19171C" d="M672.46,469.881h44.09v7.79h-35.04v24.199h32.2v7.79h-32.2v33.88h-9.05V469.881z"/>
	<path fill="#19171C" d="M773.8,469.881h9.79l-23.681,43.56v30.1h-9.05v-30.1l-23.78-43.56h10.311l18.21,35.04L773.8,469.881z"/>
	<path fill="#19171C" d="M610.49,3.98c-60.689,0-116.35,7.87-159.739,20.97V49.51v116.77v107.21c0,28.96,23.729,55.8,79.35,89.75
		c31.64,19.311,63.66,34.46,67.36,36.19l13.029,6.04l13.011-6.03c1.38-0.64,34.34-16.03,67.38-36.2
		c55.609-33.95,79.34-60.79,79.34-89.75V166.28V49.53V24.95C726.82,11.85,671.17,3.98,610.49,3.98"/>
	<path fill="#FFFFFF" d="M684,110.01L581.17,217.84l-41.841-43.869L508.59,206.21l72.58,76.11l133.58-140.08L684,110.01z"/>
</g>
</svg>
